<svg xmlns="http://www.w3.org/2000/svg" version="1.1" id="Capa_1" x="0" y="0" xml:space="preserve" width="50.301" height="57.011"><style type="text/css" id="style3">.st2{fill:#9b214a}</style><g id="g13" transform="translate(-3.7 -8.29)"><g id="g15"><path d="M33 65.3H16.5c-6.8-.1-12.4-5.4-12.8-12.1v-1.8C3.6 36 13.7 16.5 22 10.7c4.3-3 9.4-3.2 14.5-.6C46.5 15.4 54 30.2 54 40c0 6.2-2.9 10.6-7.9 12.6 0 2.5-.8 4.9-2.2 7.1-2.4 3.5-6.5 5.6-10.9 5.6zm-.2-5.6c2.6 0 5-1.2 6.4-3.2.6-.8 1-1.8 1.1-2.7h-16c-1.5 0-2.5-.3-2.7-.3-2.1-.6-3.9-1.9-4.9-3.8-.9-1.7-1.1-3.7-.5-5.6.1-.3.2-.6.3-.8L23 28.7c1.3-3 4.2-4.9 7.5-4.9s6.3 1.7 7.7 4.7l.1.3L44.9 47c3.5-1.9 3.5-5.5 3.5-7 0-8.7-7.2-21-14.5-24.8-3.2-1.7-6-1.6-8.6.2-6.3 4.4-16 21.8-16 36.1V53c.3 3.7 3.5 6.7 7.2 6.7h16.3zM23.2 48s.5.1 1.2.1h14.9L33 30.8c-.7-1.3-2-1.4-2.4-1.3-.4 0-1.8.1-2.4 1.5l-6.4 14.6c0 .1-.1.2-.1.3-.1.4-.1.8.1 1.2.3.4.8.7 1.4.9z" id="path17" fill="#fff" fill-opacity="1"/></g></g><g id="g19" transform="translate(-3.7 -8.29)"><path class="st2" d="M39.7 55.8c2.3 0 4.4-.4 6.2-1 .1-.7.2-1.5.2-2.2-1.7.7-3.6 1-5.8 1.1 0 .7-.2 1.4-.6 2.1z" id="path21" fill="#c8c8c8" fill-opacity="1"/><path class="st2" d="M44.9 47l-.7-1.9c-1.1.6-2.6 1-4.9 1h-.8l.7 2c2.6 0 4.4-.4 5.7-1.1z" id="path23" fill="#c8c8c8" fill-opacity="1"/></g></svg>